<?xml version="1.0" encoding="iso-8859-1"?>
<!-- Generator: Adobe Illustrator 19.0.0, SVG Export Plug-In . SVG Version: 6.00 Build 0)  -->
<svg version="1.1" id="Capa_1" xmlns="http://www.w3.org/2000/svg" xmlns:xlink="http://www.w3.org/1999/xlink" x="0px" y="0px"
	 viewBox="0 0 512 512" style="enable-background:new 0 0 512 512;" xml:space="preserve">
<path style="fill:#4FD255;" d="M383.106,382.557c1.29-1.987,1.29-4.57,0-6.556c-13.272-20.426-36.275-33.945-62.449-33.945
	c-27.551,0-51.587,14.978-64.461,37.223c12.873,22.245,36.91,37.222,64.461,37.222C346.831,416.501,369.834,402.982,383.106,382.557
	z"/>
<path style="fill:#2CB855;" d="M383.097,375.988c-2.991-4.596-6.477-8.84-10.378-12.661c-13.42,13.151-31.786,21.27-52.063,21.27
	c-20.275,0-38.642-8.119-52.063-21.27c-4.815,4.718-8.999,10.078-12.398,15.952c12.874,22.245,36.91,37.223,64.461,37.223
	c26.173,0,49.175-13.517,62.447-33.942C384.399,380.568,384.393,377.979,383.097,375.988z"/>
<path style="fill:#4FD255;" d="M256,379.279c-12.873-22.245-36.91-37.223-64.461-37.223c-26.174,0-49.177,13.519-62.449,33.945
	c-1.29,1.987-1.29,4.57,0,6.556c13.272,20.426,36.275,33.945,62.449,33.945C219.09,416.501,243.127,401.524,256,379.279z"/>
<path style="fill:#2CB855;" d="M256,379.279c-3.399-5.873-7.583-11.234-12.398-15.952c-13.42,13.151-31.787,21.27-52.063,21.27
	s-38.642-8.119-52.063-21.27c-3.901,3.822-7.387,8.065-10.377,12.661c-1.295,1.991-1.302,4.58-0.007,6.572
	c13.272,20.425,36.275,33.942,62.447,33.942C219.09,416.501,243.127,401.524,256,379.279z"/>
<path style="fill:#4FD255;" d="M256,512c-4.205,0-7.614-3.409-7.614-7.614V269.351c0-4.205,3.409-7.614,7.614-7.614
	c4.205,0,7.614,3.409,7.614,7.614v235.033C263.615,508.591,260.205,512,256,512z"/>
<path style="fill:#FE8A46;" d="M397.605,102.881c-10.223-31.464-39.415-51.448-70.8-51.444C317.11,21.587,289.083,0,256,0
	s-61.11,21.587-70.805,51.438c-31.386-0.005-60.576,19.98-70.8,51.444c-10.223,31.463,1.646,64.79,27.041,83.234
	c-9.703,29.848,0.283,63.787,27.048,83.231c26.765,19.446,62.128,18.456,87.517,0.004c25.389,18.452,60.752,19.442,87.517-0.004
	s36.751-53.383,27.048-83.231C395.958,167.672,407.827,134.346,397.605,102.881z"/>
<g>
	<path style="fill:#F26C2C;" d="M397.605,102.881c-10.223-31.464-39.415-51.448-70.8-51.444C317.111,21.587,289.083,0,256,0
		c-5.477,0-10.812,0.604-15.952,1.727c25.905,5.66,46.763,24.802,54.852,49.711c31.385-0.005,60.576,19.98,70.8,51.444
		c10.223,31.463-1.647,64.79-27.04,83.234c9.703,29.848-0.283,63.787-27.048,83.231c-8.567,6.224-18.016,10.344-27.736,12.478
		c20.026,4.374,41.753,0.518,59.641-12.478c26.765-19.446,36.751-53.383,27.048-83.231
		C395.958,167.672,407.827,134.346,397.605,102.881z"/>
	<path style="fill:#F26C2C;" d="M256,113.965c-4.205,0-7.614-3.409-7.614-7.614V81.497c0-4.205,3.409-7.614,7.614-7.614
		c4.205,0,7.614,3.409,7.614,7.614v24.853C263.615,110.556,260.205,113.965,256,113.965z"/>
	<path style="fill:#F26C2C;" d="M215.543,143.362c-0.78,0-1.573-0.121-2.354-0.375l-23.638-7.68c-3.999-1.3-6.189-5.595-4.888-9.594
		c1.299-3.999,5.593-6.192,9.594-4.888l23.638,7.68c3.999,1.299,6.189,5.595,4.888,9.594
		C221.738,141.316,218.753,143.362,215.543,143.362z"/>
	<path style="fill:#F26C2C;" d="M216.38,211.03c-1.551,0-3.118-0.473-4.469-1.455c-3.402-2.472-4.156-7.234-1.685-10.636
		l14.608-20.107c2.471-3.403,7.234-4.156,10.636-1.685c3.402,2.472,4.156,7.234,1.685,10.636l-14.608,20.107
		C221.057,209.942,218.735,211.03,216.38,211.03z"/>
	<path style="fill:#F26C2C;" d="M295.62,211.03c-2.354,0-4.676-1.088-6.167-3.139l-14.608-20.107
		c-2.472-3.402-1.717-8.164,1.685-10.636c3.403-2.471,8.164-1.717,10.636,1.685l14.608,20.107c2.472,3.402,1.717,8.164-1.685,10.636
		C298.737,210.557,297.171,211.03,295.62,211.03z"/>
	<path style="fill:#F26C2C;" d="M296.458,143.362c-3.21,0-6.195-2.046-7.24-5.263c-1.299-3.999,0.889-8.296,4.888-9.595l23.637-7.68
		c3.998-1.301,8.296,0.889,9.595,4.888s-0.889,8.296-4.888,9.595l-23.637,7.68C298.03,143.242,297.237,143.362,296.458,143.362z"/>
</g>
<circle style="fill:#FFD347;" cx="256.003" cy="148.895" r="42.541"/>
<path style="fill:#FFBE31;" d="M256,106.352c-5.644,0-11.024,1.109-15.952,3.104c15.588,6.312,26.588,21.586,26.588,39.437
	s-11,33.125-26.588,39.437c4.928,1.995,10.309,3.105,15.952,3.105c23.495,0,42.541-19.046,42.541-42.541
	C298.541,125.397,279.495,106.352,256,106.352z"/>
<g>
</g>
<g>
</g>
<g>
</g>
<g>
</g>
<g>
</g>
<g>
</g>
<g>
</g>
<g>
</g>
<g>
</g>
<g>
</g>
<g>
</g>
<g>
</g>
<g>
</g>
<g>
</g>
<g>
</g>
</svg>
