<svg id="Capa_1" enable-background="new 0 0 497 497" height="512" viewBox="0 0 497 497" width="512" xmlns="http://www.w3.org/2000/svg"><g><path d="m291.002 15c-4.489 0-8.755 1.955-11.687 5.355l-8.315 9.645-23.641 185.041h15l30.371-73.322c9.046-21.839 13.702-45.245 13.702-68.883v-42.406c0-8.522-6.908-15.43-15.43-15.43z" fill="#fbbecf"/><path d="m276.432 72.835v-27.405c0-8.522-2.711-15.43-5.432-15.43l-7.3-19.466c-2.376-6.336-8.433-10.534-15.2-10.534s-12.824 4.198-15.2 10.534l-7.3 19.466-8.316-9.645c-2.931-3.4-7.198-5.355-11.686-5.355-8.522 0-15.43 6.908-15.43 15.43v42.405c0 23.638 4.656 47.044 13.702 68.883l30.371 73.322h27.719l9.698-73.322c2.888-21.838 4.374-45.245 4.374-68.883z" fill="#fbcfdb"/><path d="m113.444 53.337c-3.174 3.174-4.809 7.573-4.477 12.05l.94 12.7 114.127 147.56 10.607-10.607-30.371-73.322c-9.046-21.839-22.305-41.682-39.019-58.396l-29.985-29.985c-6.026-6.026-15.796-6.026-21.822 0z" fill="#fbbecf"/><path d="m144.037 104.535-19.378-19.378c-6.026-6.026-12.828-8.994-14.752-7.069l-18.927-8.604c-6.16-2.8-13.412-1.485-18.197 3.3s-6.1 12.036-3.3 18.197l8.603 18.926-12.7-.94c-4.477-.331-8.876 1.303-12.05 4.477-6.026 6.026-6.026 15.796 0 21.821l29.985 29.985c16.715 16.715 36.558 29.973 58.396 39.019l73.322 30.371 19.6-19.6-44.989-58.704c-13.398-17.484-28.898-35.086-45.613-51.801z" fill="#fbcfdb"/><path d="m15 205.998c0 4.489 1.955 8.755 5.355 11.687l9.645 8.315 185.041 23.641v-15l-73.322-30.371c-21.839-9.046-45.245-13.702-68.883-13.702h-42.406c-8.522 0-15.43 6.908-15.43 15.43z" fill="#fbbecf"/><path d="m72.835 220.568h-27.405c-8.522 0-15.43 2.711-15.43 5.432l-19.466 7.3c-6.336 2.376-10.534 8.433-10.534 15.2s4.198 12.824 10.534 15.2l19.466 7.3-9.645 8.316c-3.4 2.931-5.355 7.198-5.355 11.686 0 8.522 6.908 15.43 15.43 15.43h42.405c23.638 0 47.044-4.656 68.883-13.702l73.322-30.371v-27.719l-73.322-9.698c-21.838-2.888-45.245-4.374-68.883-4.374z" fill="#fbcfdb"/><path d="m53.337 383.556c3.174 3.174 7.573 4.809 12.05 4.477l12.7-.94 147.56-114.127-10.607-10.607-73.322 30.371c-21.839 9.046-41.682 22.305-58.396 39.019l-29.985 29.985c-6.026 6.026-6.026 15.796 0 21.822z" fill="#fbbecf"/><path d="m104.535 352.963-19.378 19.378c-6.026 6.026-8.994 12.828-7.069 14.752l-8.603 18.926c-2.8 6.16-1.485 13.412 3.3 18.197s12.036 6.1 18.197 3.3l18.926-8.603-.94 12.7c-.331 4.477 1.303 8.876 4.477 12.05 6.026 6.026 15.796 6.026 21.821 0l29.985-29.985c16.715-16.715 29.973-36.558 39.019-58.396l30.371-73.322-19.6-19.6-58.704 44.989c-17.485 13.399-35.087 28.899-51.802 45.614z" fill="#fbcfdb"/><path d="m205.998 482c4.489 0 8.755-1.955 11.687-5.355l8.315-9.645 23.641-185.041h-15l-30.371 73.322c-9.046 21.839-13.702 45.245-13.702 68.883v42.405c0 8.523 6.908 15.431 15.43 15.431z" fill="#fbbecf"/><path d="m220.568 424.165v27.405c0 8.522 2.711 15.43 5.432 15.43l7.3 19.466c2.376 6.336 8.433 10.534 15.2 10.534s12.824-4.198 15.2-10.534l7.3-19.466 8.316 9.645c2.931 3.4 7.198 5.355 11.686 5.355 8.522 0 15.43-6.908 15.43-15.43v-42.405c0-23.638-4.656-47.044-13.702-68.883l-30.371-73.322h-27.719l-9.698 73.322c-2.888 21.838-4.374 45.245-4.374 68.883z" fill="#fbcfdb"/><path d="m383.556 443.663c3.174-3.174 4.809-7.573 4.477-12.05l-.94-12.7-114.127-147.56-10.607 10.607 30.371 73.322c9.046 21.839 22.305 41.682 39.019 58.396l29.985 29.985c6.026 6.026 15.796 6.026 21.822 0z" fill="#fbbecf"/><path d="m352.963 392.465 19.378 19.378c6.026 6.026 12.828 8.994 14.752 7.069l18.926 8.603c6.16 2.8 13.412 1.485 18.197-3.3s6.1-12.036 3.3-18.197l-8.603-18.926 12.7.94c4.477.331 8.876-1.303 12.05-4.477 6.026-6.026 6.026-15.796 0-21.821l-29.985-29.985c-16.715-16.715-36.558-29.973-58.396-39.019l-73.322-30.371-19.6 19.6 44.989 58.704c13.399 17.485 28.899 35.087 45.614 51.802z" fill="#fbcfdb"/><path d="m482 291.002c0-4.489-1.955-8.755-5.355-11.687l-9.645-8.315-185.041-23.641v15l73.322 30.371c21.839 9.046 45.245 13.702 68.883 13.702h42.405c8.523 0 15.431-6.908 15.431-15.43z" fill="#fbbecf"/><path d="m424.165 276.432h27.405c8.522 0 15.43-2.711 15.43-5.432l19.466-7.3c6.336-2.376 10.534-8.433 10.534-15.2s-4.198-12.824-10.534-15.2l-19.466-7.3 9.645-8.316c3.4-2.931 5.355-7.198 5.355-11.686 0-8.522-6.908-15.43-15.43-15.43h-42.405c-23.638 0-47.044 4.656-68.883 13.702l-73.322 30.371v27.719l73.322 9.698c21.838 2.888 45.245 4.374 68.883 4.374z" fill="#fbcfdb"/><path d="m443.663 113.444c-3.174-3.174-7.573-4.809-12.05-4.477l-12.7.94-147.56 114.127 10.607 10.607 73.322-30.371c21.839-9.046 41.682-22.305 58.396-39.019l29.985-29.985c6.026-6.026 6.026-15.796 0-21.822z" fill="#fbbecf"/><path d="m392.465 144.037 19.378-19.378c6.026-6.026 8.994-12.828 7.069-14.752l8.603-18.926c2.8-6.16 1.485-13.412-3.3-18.197s-12.036-6.1-18.197-3.3l-18.926 8.603.94-12.7c.331-4.477-1.303-8.876-4.477-12.05-6.026-6.026-15.796-6.026-21.821 0l-29.985 29.985c-16.715 16.715-29.973 36.558-39.019 58.396l-30.371 73.322 19.6 19.6 58.704-44.989c17.485-13.399 35.087-28.899 51.802-45.614z" fill="#fbcfdb"/><circle cx="248.5" cy="248.5" fill="#faec8e" r="39.2"/><circle cx="248.5" cy="209.3" fill="#fbf6c3" r="15"/><circle cx="220.781" cy="220.781" fill="#fbf9e9" r="15"/><circle cx="209.3" cy="248.5" fill="#fbf6c3" r="15"/><circle cx="220.781" cy="276.219" fill="#fbf9e9" r="15"/><circle cx="248.5" cy="287.7" fill="#fbf6c3" r="15"/><circle cx="276.218" cy="276.219" fill="#fbf9e9" r="15"/><circle cx="287.7" cy="248.5" fill="#fbf6c3" r="15"/><circle cx="276.218" cy="220.781" fill="#fbf9e9" r="15"/></g></svg>